<svg xmlns="http://www.w3.org/2000/svg" xmlns:xlink="http://www.w3.org/1999/xlink" width="1366" zoomAndPan="magnify" viewBox="0 0 1024.5 576" height="768" preserveAspectRatio="xMidYMid meet" version="1.0"><defs><filter x="0%" y="0%" width="100%" height="100%" id="e6172eb523"><feColorMatrix values="0 0 0 0 1 0 0 0 0 1 0 0 0 0 1 0 0 0 1 0" color-interpolation-filters="sRGB"/></filter><g/><clipPath id="c1c7d51ecf"><path d="M 0 0.140625 L 1024 0.140625 L 1024 575.859375 L 0 575.859375 Z M 0 0.140625 " clip-rule="nonzero"/></clipPath><mask id="103bb172b1"><g filter="url(#e6172eb523)"><rect x="-102.45" width="1229.4" fill="#000000" y="-57.6" height="691.2" fill-opacity="0.35"/></g></mask><clipPath id="02cdd8d4d5"><path d="M 0.40625 0.363281 L 237.414062 0.363281 L 237.414062 48.578125 L 0.40625 48.578125 Z M 0.40625 0.363281 " clip-rule="nonzero"/></clipPath><clipPath id="507c5efbdd"><rect x="0" width="238" y="0" height="49"/></clipPath><mask id="b26dd9c5c4"><g filter="url(#e6172eb523)"><rect x="-102.45" width="1229.4" fill="#000000" y="-57.6" height="691.2" fill-opacity="0.35"/></g></mask><clipPath id="4cf874f17f"><path d="M 0.40625 0.464844 L 237.414062 0.464844 L 237.414062 48.683594 L 0.40625 48.683594 Z M 0.40625 0.464844 " clip-rule="nonzero"/></clipPath><clipPath id="6238132026"><rect x="0" width="238" y="0" height="49"/></clipPath><mask id="6b53f8f1e7"><g filter="url(#e6172eb523)"><rect x="-102.45" width="1229.4" fill="#000000" y="-57.6" height="691.2" fill-opacity="0.35"/></g></mask><clipPath id="457684a3ce"><path d="M 0.40625 0.421875 L 237.414062 0.421875 L 237.414062 48.878906 L 0.40625 48.878906 Z M 0.40625 0.421875 " clip-rule="nonzero"/></clipPath><clipPath id="558e9b9f10"><rect x="0" width="238" y="0" height="49"/></clipPath><mask id="507c55ee33"><g filter="url(#e6172eb523)"><rect x="-102.45" width="1229.4" fill="#000000" y="-57.6" height="691.2" fill-opacity="0.35"/></g></mask><clipPath id="77e6a0bbfe"><path d="M 0.40625 1 L 237.414062 1 L 237.414062 49 L 0.40625 49 Z M 0.40625 1 " clip-rule="nonzero"/></clipPath><clipPath id="49feb71473"><rect x="0" width="238" y="0" height="50"/></clipPath></defs><g clip-path="url(#c1c7d51ecf)"><path fill="#ffffff" d="M 0 0.140625 L 1024 0.140625 L 1024 575.859375 L 0 575.859375 Z M 0 0.140625 " fill-opacity="1" fill-rule="nonzero"/><path fill="#040404" d="M 0 0.140625 L 1024 0.140625 L 1024 575.859375 L 0 575.859375 Z M 0 0.140625 " fill-opacity="1" fill-rule="nonzero"/></g><g mask="url(#103bb172b1)"><g transform="matrix(1, 0, 0, 1, 393, 202)"><g clip-path="url(#507c5efbdd)"><g clip-path="url(#02cdd8d4d5)"><path fill="#040404" d="M 12.621094 0.675781 L 225.378906 0.675781 C 228.527344 0.675781 231.546875 1.925781 233.769531 4.152344 C 235.996094 6.375 237.246094 9.394531 237.246094 12.542969 L 237.246094 36.273438 C 237.246094 39.417969 235.996094 42.4375 233.769531 44.660156 C 231.546875 46.886719 228.527344 48.136719 225.378906 48.136719 L 12.621094 48.136719 C 6.066406 48.136719 0.753906 42.824219 0.753906 36.273438 L 0.753906 12.542969 C 0.753906 9.394531 2.003906 6.375 4.230469 4.152344 C 6.453125 1.925781 9.472656 0.675781 12.621094 0.675781 Z M 12.621094 0.675781 " fill-opacity="1" fill-rule="nonzero"/></g><g fill="#d4cdcd" fill-opacity="1"><g transform="translate(15.50779, 34.710679)"><g><path d="M 19.59375 0 L 9.953125 0 L 9.953125 -17.28125 L 0.953125 -17.28125 L 0.953125 -22.96875 L 28.59375 -22.96875 L 28.59375 -17.28125 L 19.59375 -17.28125 Z M 19.59375 0 "/></g></g></g><g fill="#d4cdcd" fill-opacity="1"><g transform="translate(48.334471, 34.710679)"><g><path d="M 12.203125 0 L 2.5625 0 L 2.5625 -22.96875 L 12.203125 -22.96875 Z M 12.203125 0 "/></g></g></g><g fill="#d4cdcd" fill-opacity="1"><g transform="translate(66.371098, 34.710679)"><g><path d="M 30.21875 0 L 2.5625 0 L 2.5625 -22.96875 L 28.953125 -22.96875 L 28.953125 -17.28125 L 12.203125 -17.28125 L 12.203125 -13.6875 L 26.359375 -13.6875 L 26.359375 -9.265625 L 12.203125 -9.265625 L 12.203125 -5.6875 L 30.21875 -5.6875 Z M 30.21875 0 "/></g></g></g><g fill="#d4cdcd" fill-opacity="1"><g transform="translate(101.150578, 34.710679)"><g><path d="M 36.640625 0 L 25.171875 0 L 12.203125 -15.546875 L 12.203125 0 L 2.5625 0 L 2.5625 -22.96875 L 14.015625 -22.96875 L 27 -7.5 L 27 -22.96875 L 36.640625 -22.96875 Z M 36.640625 0 "/></g></g></g><g fill="#d4cdcd" fill-opacity="1"><g transform="translate(143.62921, 34.710679)"><g><path d="M 17.921875 0 L 2.5625 0 L 2.5625 -22.96875 L 17.921875 -22.96875 C 24.210938 -22.96875 28.734375 -22.085938 31.484375 -20.328125 C 33.703125 -18.910156 34.96875 -16.976562 35.28125 -14.53125 C 35.414062 -13.476562 35.484375 -12.460938 35.484375 -11.484375 C 35.484375 -10.503906 35.414062 -9.484375 35.28125 -8.421875 C 35.15625 -7.359375 34.800781 -6.328125 34.21875 -5.328125 C 33.644531 -4.335938 32.726562 -3.441406 31.46875 -2.640625 C 30.21875 -1.835938 28.5 -1.195312 26.3125 -0.71875 C 24.132812 -0.238281 21.335938 0 17.921875 0 Z M 17.015625 -5.6875 C 21.910156 -5.6875 24.679688 -6.921875 25.328125 -9.390625 C 25.492188 -10.085938 25.578125 -10.785156 25.578125 -11.484375 C 25.578125 -12.179688 25.488281 -12.875 25.3125 -13.5625 C 25.132812 -14.25 24.757812 -14.875 24.1875 -15.4375 C 23.625 -16 22.769531 -16.445312 21.625 -16.78125 C 20.476562 -17.113281 18.941406 -17.28125 17.015625 -17.28125 L 12.203125 -17.28125 L 12.203125 -5.6875 Z M 17.015625 -5.6875 "/></g></g></g><g fill="#d4cdcd" fill-opacity="1"><g transform="translate(183.674839, 34.710679)"><g><path d="M 38.578125 0 L 28.8125 0 L 26.65625 -3.765625 L 12.171875 -3.765625 L 10 0 L 0.234375 0 L 14.9375 -22.953125 L 23.875 -22.953125 Z M 23.40625 -9.4375 L 19.421875 -16.40625 L 15.421875 -9.4375 Z M 23.40625 -9.4375 "/></g></g></g></g></g></g><g mask="url(#b26dd9c5c4)"><g transform="matrix(1, 0, 0, 1, 393, 235)"><g clip-path="url(#6238132026)"><g clip-path="url(#4cf874f17f)"><path fill="#040404" d="M 12.621094 0.78125 L 225.378906 0.78125 C 228.527344 0.78125 231.546875 2.03125 233.769531 4.257812 C 235.996094 6.480469 237.246094 9.5 237.246094 12.644531 L 237.246094 36.378906 C 237.246094 39.523438 235.996094 42.542969 233.769531 44.765625 C 231.546875 46.992188 228.527344 48.242188 225.378906 48.242188 L 12.621094 48.242188 C 6.066406 48.242188 0.753906 42.929688 0.753906 36.378906 L 0.753906 12.644531 C 0.753906 9.5 2.003906 6.480469 4.230469 4.257812 C 6.453125 2.03125 9.472656 0.78125 12.621094 0.78125 Z M 12.621094 0.78125 " fill-opacity="1" fill-rule="nonzero"/></g><g fill="#d4cdcd" fill-opacity="1"><g transform="translate(15.50779, 34.815795)"><g><path d="M 19.59375 0 L 9.953125 0 L 9.953125 -17.28125 L 0.953125 -17.28125 L 0.953125 -22.96875 L 28.59375 -22.96875 L 28.59375 -17.28125 L 19.59375 -17.28125 Z M 19.59375 0 "/></g></g></g><g fill="#d4cdcd" fill-opacity="1"><g transform="translate(48.334471, 34.815795)"><g><path d="M 12.203125 0 L 2.5625 0 L 2.5625 -22.96875 L 12.203125 -22.96875 Z M 12.203125 0 "/></g></g></g><g fill="#d4cdcd" fill-opacity="1"><g transform="translate(66.371098, 34.815795)"><g><path d="M 30.21875 0 L 2.5625 0 L 2.5625 -22.96875 L 28.953125 -22.96875 L 28.953125 -17.28125 L 12.203125 -17.28125 L 12.203125 -13.6875 L 26.359375 -13.6875 L 26.359375 -9.265625 L 12.203125 -9.265625 L 12.203125 -5.6875 L 30.21875 -5.6875 Z M 30.21875 0 "/></g></g></g><g fill="#d4cdcd" fill-opacity="1"><g transform="translate(101.150578, 34.815795)"><g><path d="M 36.640625 0 L 25.171875 0 L 12.203125 -15.546875 L 12.203125 0 L 2.5625 0 L 2.5625 -22.96875 L 14.015625 -22.96875 L 27 -7.5 L 27 -22.96875 L 36.640625 -22.96875 Z M 36.640625 0 "/></g></g></g><g fill="#d4cdcd" fill-opacity="1"><g transform="translate(143.62921, 34.815795)"><g><path d="M 17.921875 0 L 2.5625 0 L 2.5625 -22.96875 L 17.921875 -22.96875 C 24.210938 -22.96875 28.734375 -22.085938 31.484375 -20.328125 C 33.703125 -18.910156 34.96875 -16.976562 35.28125 -14.53125 C 35.414062 -13.476562 35.484375 -12.460938 35.484375 -11.484375 C 35.484375 -10.503906 35.414062 -9.484375 35.28125 -8.421875 C 35.15625 -7.359375 34.800781 -6.328125 34.21875 -5.328125 C 33.644531 -4.335938 32.726562 -3.441406 31.46875 -2.640625 C 30.21875 -1.835938 28.5 -1.195312 26.3125 -0.71875 C 24.132812 -0.238281 21.335938 0 17.921875 0 Z M 17.015625 -5.6875 C 21.910156 -5.6875 24.679688 -6.921875 25.328125 -9.390625 C 25.492188 -10.085938 25.578125 -10.785156 25.578125 -11.484375 C 25.578125 -12.179688 25.488281 -12.875 25.3125 -13.5625 C 25.132812 -14.25 24.757812 -14.875 24.1875 -15.4375 C 23.625 -16 22.769531 -16.445312 21.625 -16.78125 C 20.476562 -17.113281 18.941406 -17.28125 17.015625 -17.28125 L 12.203125 -17.28125 L 12.203125 -5.6875 Z M 17.015625 -5.6875 "/></g></g></g><g fill="#d4cdcd" fill-opacity="1"><g transform="translate(183.674839, 34.815795)"><g><path d="M 38.578125 0 L 28.8125 0 L 26.65625 -3.765625 L 12.171875 -3.765625 L 10 0 L 0.234375 0 L 14.9375 -22.953125 L 23.875 -22.953125 Z M 23.40625 -9.4375 L 19.421875 -16.40625 L 15.421875 -9.4375 Z M 23.40625 -9.4375 "/></g></g></g></g></g></g><g mask="url(#6b53f8f1e7)"><g transform="matrix(1, 0, 0, 1, 393, 325)"><g clip-path="url(#558e9b9f10)"><g clip-path="url(#457684a3ce)"><path fill="#040404" d="M 12.621094 0.863281 L 225.378906 0.863281 C 228.527344 0.863281 231.546875 2.113281 233.769531 4.339844 C 235.996094 6.5625 237.246094 9.582031 237.246094 12.726562 L 237.246094 36.457031 C 237.246094 39.605469 235.996094 42.625 233.769531 44.847656 C 231.546875 47.074219 228.527344 48.324219 225.378906 48.324219 L 12.621094 48.324219 C 6.066406 48.324219 0.753906 43.011719 0.753906 36.457031 L 0.753906 12.726562 C 0.753906 9.582031 2.003906 6.5625 4.230469 4.339844 C 6.453125 2.113281 9.472656 0.863281 12.621094 0.863281 Z M 12.621094 0.863281 " fill-opacity="1" fill-rule="nonzero"/></g><g fill="#d4cdcd" fill-opacity="1"><g transform="translate(15.50779, 34.897672)"><g><path d="M 19.59375 0 L 9.953125 0 L 9.953125 -17.28125 L 0.953125 -17.28125 L 0.953125 -22.96875 L 28.59375 -22.96875 L 28.59375 -17.28125 L 19.59375 -17.28125 Z M 19.59375 0 "/></g></g></g><g fill="#d4cdcd" fill-opacity="1"><g transform="translate(48.334471, 34.897672)"><g><path d="M 12.203125 0 L 2.5625 0 L 2.5625 -22.96875 L 12.203125 -22.96875 Z M 12.203125 0 "/></g></g></g><g fill="#d4cdcd" fill-opacity="1"><g transform="translate(66.371098, 34.897672)"><g><path d="M 30.21875 0 L 2.5625 0 L 2.5625 -22.96875 L 28.953125 -22.96875 L 28.953125 -17.28125 L 12.203125 -17.28125 L 12.203125 -13.6875 L 26.359375 -13.6875 L 26.359375 -9.265625 L 12.203125 -9.265625 L 12.203125 -5.6875 L 30.21875 -5.6875 Z M 30.21875 0 "/></g></g></g><g fill="#d4cdcd" fill-opacity="1"><g transform="translate(101.150578, 34.897672)"><g><path d="M 36.640625 0 L 25.171875 0 L 12.203125 -15.546875 L 12.203125 0 L 2.5625 0 L 2.5625 -22.96875 L 14.015625 -22.96875 L 27 -7.5 L 27 -22.96875 L 36.640625 -22.96875 Z M 36.640625 0 "/></g></g></g><g fill="#d4cdcd" fill-opacity="1"><g transform="translate(143.62921, 34.897672)"><g><path d="M 17.921875 0 L 2.5625 0 L 2.5625 -22.96875 L 17.921875 -22.96875 C 24.210938 -22.96875 28.734375 -22.085938 31.484375 -20.328125 C 33.703125 -18.910156 34.96875 -16.976562 35.28125 -14.53125 C 35.414062 -13.476562 35.484375 -12.460938 35.484375 -11.484375 C 35.484375 -10.503906 35.414062 -9.484375 35.28125 -8.421875 C 35.15625 -7.359375 34.800781 -6.328125 34.21875 -5.328125 C 33.644531 -4.335938 32.726562 -3.441406 31.46875 -2.640625 C 30.21875 -1.835938 28.5 -1.195312 26.3125 -0.71875 C 24.132812 -0.238281 21.335938 0 17.921875 0 Z M 17.015625 -5.6875 C 21.910156 -5.6875 24.679688 -6.921875 25.328125 -9.390625 C 25.492188 -10.085938 25.578125 -10.785156 25.578125 -11.484375 C 25.578125 -12.179688 25.488281 -12.875 25.3125 -13.5625 C 25.132812 -14.25 24.757812 -14.875 24.1875 -15.4375 C 23.625 -16 22.769531 -16.445312 21.625 -16.78125 C 20.476562 -17.113281 18.941406 -17.28125 17.015625 -17.28125 L 12.203125 -17.28125 L 12.203125 -5.6875 Z M 17.015625 -5.6875 "/></g></g></g><g fill="#d4cdcd" fill-opacity="1"><g transform="translate(183.674839, 34.897672)"><g><path d="M 38.578125 0 L 28.8125 0 L 26.65625 -3.765625 L 12.171875 -3.765625 L 10 0 L 0.234375 0 L 14.9375 -22.953125 L 23.875 -22.953125 Z M 23.40625 -9.4375 L 19.421875 -16.40625 L 15.421875 -9.4375 Z M 23.40625 -9.4375 "/></g></g></g></g></g></g><g mask="url(#507c55ee33)"><g transform="matrix(1, 0, 0, 1, 393, 296)"><g clip-path="url(#49feb71473)"><g clip-path="url(#77e6a0bbfe)"><path fill="#040404" d="M 12.621094 1.375 L 225.378906 1.375 C 228.527344 1.375 231.546875 2.625 233.769531 4.847656 C 235.996094 7.074219 237.246094 10.09375 237.246094 13.238281 L 237.246094 36.96875 C 237.246094 40.117188 235.996094 43.136719 233.769531 45.359375 C 231.546875 47.585938 228.527344 48.835938 225.378906 48.835938 L 12.621094 48.835938 C 6.066406 48.835938 0.753906 43.523438 0.753906 36.96875 L 0.753906 13.238281 C 0.753906 10.09375 2.003906 7.074219 4.230469 4.847656 C 6.453125 2.625 9.472656 1.375 12.621094 1.375 Z M 12.621094 1.375 " fill-opacity="1" fill-rule="nonzero"/></g><g fill="#d4cdcd" fill-opacity="1"><g transform="translate(15.50779, 35.409263)"><g><path d="M 19.59375 0 L 9.953125 0 L 9.953125 -17.28125 L 0.953125 -17.28125 L 0.953125 -22.96875 L 28.59375 -22.96875 L 28.59375 -17.28125 L 19.59375 -17.28125 Z M 19.59375 0 "/></g></g></g><g fill="#d4cdcd" fill-opacity="1"><g transform="translate(48.334471, 35.409263)"><g><path d="M 12.203125 0 L 2.5625 0 L 2.5625 -22.96875 L 12.203125 -22.96875 Z M 12.203125 0 "/></g></g></g><g fill="#d4cdcd" fill-opacity="1"><g transform="translate(66.371098, 35.409263)"><g><path d="M 30.21875 0 L 2.5625 0 L 2.5625 -22.96875 L 28.953125 -22.96875 L 28.953125 -17.28125 L 12.203125 -17.28125 L 12.203125 -13.6875 L 26.359375 -13.6875 L 26.359375 -9.265625 L 12.203125 -9.265625 L 12.203125 -5.6875 L 30.21875 -5.6875 Z M 30.21875 0 "/></g></g></g><g fill="#d4cdcd" fill-opacity="1"><g transform="translate(101.150578, 35.409263)"><g><path d="M 36.640625 0 L 25.171875 0 L 12.203125 -15.546875 L 12.203125 0 L 2.5625 0 L 2.5625 -22.96875 L 14.015625 -22.96875 L 27 -7.5 L 27 -22.96875 L 36.640625 -22.96875 Z M 36.640625 0 "/></g></g></g><g fill="#d4cdcd" fill-opacity="1"><g transform="translate(143.62921, 35.409263)"><g><path d="M 17.921875 0 L 2.5625 0 L 2.5625 -22.96875 L 17.921875 -22.96875 C 24.210938 -22.96875 28.734375 -22.085938 31.484375 -20.328125 C 33.703125 -18.910156 34.96875 -16.976562 35.28125 -14.53125 C 35.414062 -13.476562 35.484375 -12.460938 35.484375 -11.484375 C 35.484375 -10.503906 35.414062 -9.484375 35.28125 -8.421875 C 35.15625 -7.359375 34.800781 -6.328125 34.21875 -5.328125 C 33.644531 -4.335938 32.726562 -3.441406 31.46875 -2.640625 C 30.21875 -1.835938 28.5 -1.195312 26.3125 -0.71875 C 24.132812 -0.238281 21.335938 0 17.921875 0 Z M 17.015625 -5.6875 C 21.910156 -5.6875 24.679688 -6.921875 25.328125 -9.390625 C 25.492188 -10.085938 25.578125 -10.785156 25.578125 -11.484375 C 25.578125 -12.179688 25.488281 -12.875 25.3125 -13.5625 C 25.132812 -14.25 24.757812 -14.875 24.1875 -15.4375 C 23.625 -16 22.769531 -16.445312 21.625 -16.78125 C 20.476562 -17.113281 18.941406 -17.28125 17.015625 -17.28125 L 12.203125 -17.28125 L 12.203125 -5.6875 Z M 17.015625 -5.6875 "/></g></g></g><g fill="#d4cdcd" fill-opacity="1"><g transform="translate(183.674839, 35.409263)"><g><path d="M 38.578125 0 L 28.8125 0 L 26.65625 -3.765625 L 12.171875 -3.765625 L 10 0 L 0.234375 0 L 14.9375 -22.953125 L 23.875 -22.953125 Z M 23.40625 -9.4375 L 19.421875 -16.40625 L 15.421875 -9.4375 Z M 23.40625 -9.4375 "/></g></g></g></g></g></g><path fill="#040404" d="M 405.621094 264.269531 L 618.378906 264.269531 C 621.527344 264.269531 624.546875 265.519531 626.769531 267.746094 C 628.996094 269.96875 630.246094 272.988281 630.246094 276.132812 L 630.246094 299.867188 C 630.246094 303.011719 628.996094 306.03125 626.769531 308.253906 C 624.546875 310.480469 621.527344 311.730469 618.378906 311.730469 L 405.621094 311.730469 C 399.066406 311.730469 393.753906 306.417969 393.753906 299.867188 L 393.753906 276.132812 C 393.753906 272.988281 395.003906 269.96875 397.230469 267.746094 C 399.453125 265.519531 402.472656 264.269531 405.621094 264.269531 Z M 405.621094 264.269531 " fill-opacity="1" fill-rule="nonzero"/><g fill="#d4cdcd" fill-opacity="1"><g transform="translate(408.50779, 298.30416)"><g><path d="M 19.59375 0 L 9.953125 0 L 9.953125 -17.28125 L 0.953125 -17.28125 L 0.953125 -22.96875 L 28.59375 -22.96875 L 28.59375 -17.28125 L 19.59375 -17.28125 Z M 19.59375 0 "/></g></g></g><g fill="#d4cdcd" fill-opacity="1"><g transform="translate(441.334471, 298.30416)"><g><path d="M 12.203125 0 L 2.5625 0 L 2.5625 -22.96875 L 12.203125 -22.96875 Z M 12.203125 0 "/></g></g></g><g fill="#d4cdcd" fill-opacity="1"><g transform="translate(459.371098, 298.30416)"><g><path d="M 30.21875 0 L 2.5625 0 L 2.5625 -22.96875 L 28.953125 -22.96875 L 28.953125 -17.28125 L 12.203125 -17.28125 L 12.203125 -13.6875 L 26.359375 -13.6875 L 26.359375 -9.265625 L 12.203125 -9.265625 L 12.203125 -5.6875 L 30.21875 -5.6875 Z M 30.21875 0 "/></g></g></g><g fill="#d4cdcd" fill-opacity="1"><g transform="translate(494.150578, 298.30416)"><g><path d="M 36.640625 0 L 25.171875 0 L 12.203125 -15.546875 L 12.203125 0 L 2.5625 0 L 2.5625 -22.96875 L 14.015625 -22.96875 L 27 -7.5 L 27 -22.96875 L 36.640625 -22.96875 Z M 36.640625 0 "/></g></g></g><g fill="#d4cdcd" fill-opacity="1"><g transform="translate(536.62921, 298.30416)"><g><path d="M 17.921875 0 L 2.5625 0 L 2.5625 -22.96875 L 17.921875 -22.96875 C 24.210938 -22.96875 28.734375 -22.085938 31.484375 -20.328125 C 33.703125 -18.910156 34.96875 -16.976562 35.28125 -14.53125 C 35.414062 -13.476562 35.484375 -12.460938 35.484375 -11.484375 C 35.484375 -10.503906 35.414062 -9.484375 35.28125 -8.421875 C 35.15625 -7.359375 34.800781 -6.328125 34.21875 -5.328125 C 33.644531 -4.335938 32.726562 -3.441406 31.46875 -2.640625 C 30.21875 -1.835938 28.5 -1.195312 26.3125 -0.71875 C 24.132812 -0.238281 21.335938 0 17.921875 0 Z M 17.015625 -5.6875 C 21.910156 -5.6875 24.679688 -6.921875 25.328125 -9.390625 C 25.492188 -10.085938 25.578125 -10.785156 25.578125 -11.484375 C 25.578125 -12.179688 25.488281 -12.875 25.3125 -13.5625 C 25.132812 -14.25 24.757812 -14.875 24.1875 -15.4375 C 23.625 -16 22.769531 -16.445312 21.625 -16.78125 C 20.476562 -17.113281 18.941406 -17.28125 17.015625 -17.28125 L 12.203125 -17.28125 L 12.203125 -5.6875 Z M 17.015625 -5.6875 "/></g></g></g><g fill="#d4cdcd" fill-opacity="1"><g transform="translate(576.674839, 298.30416)"><g><path d="M 38.578125 0 L 28.8125 0 L 26.65625 -3.765625 L 12.171875 -3.765625 L 10 0 L 0.234375 0 L 14.9375 -22.953125 L 23.875 -22.953125 Z M 23.40625 -9.4375 L 19.421875 -16.40625 L 15.421875 -9.4375 Z M 23.40625 -9.4375 "/></g></g></g></svg>